<?xml version="1.0" encoding="UTF-8" standalone="no"?>
<svg
   xmlns:dc="http://purl.org/dc/elements/1.1/"
   xmlns:cc="http://creativecommons.org/ns#"
   xmlns:rdf="http://www.w3.org/1999/02/22-rdf-syntax-ns#"
   xmlns:svg="http://www.w3.org/2000/svg"
   xmlns="http://www.w3.org/2000/svg"
   xmlns:sodipodi="http://sodipodi.sourceforge.net/DTD/sodipodi-0.dtd"
   xmlns:inkscape="http://www.inkscape.org/namespaces/inkscape"
   version="1.1"
   x="0px"
   y="0px"
   viewBox="0 0 64 64"
   style="enable-background:new 0 0 64 64;"
   xml:space="preserve"
   id="svg44"
   sodipodi:docname="email.svg"
   inkscape:version="1.0.2-2 (e86c870879, 2021-01-15)"><metadata
   id="metadata50"><rdf:RDF><cc:Work
       rdf:about=""><dc:format>image/svg+xml</dc:format><dc:type
         rdf:resource="http://purl.org/dc/dcmitype/StillImage" /></cc:Work></rdf:RDF></metadata><defs
   id="defs48">
	
	
</defs><sodipodi:namedview
   pagecolor="#ffffff"
   bordercolor="#666666"
   borderopacity="1"
   objecttolerance="10"
   gridtolerance="10"
   guidetolerance="10"
   inkscape:pageopacity="0"
   inkscape:pageshadow="2"
   inkscape:window-width="1280"
   inkscape:window-height="658"
   id="namedview46"
   showgrid="false"
   inkscape:zoom="7.65625"
   inkscape:cx="32"
   inkscape:cy="26.77551"
   inkscape:window-x="-6"
   inkscape:window-y="-6"
   inkscape:window-maximized="1"
   inkscape:current-layer="svg44" />
<style
   type="text/css"
   id="style2">
	.st0{fill:#77B3D4;}
	.st1{opacity:0.2;}
	.st2{fill:#231F20;}
	.st3{fill:#E0E0D1;}
	.st4{fill:#FFFFFF;}
</style>
<g
   id="g6"
   style="fill:#5fd38d">
		<circle
   class="st0"
   cx="32"
   cy="32"
   r="32"
   id="circle4"
   style="fill:#5fd38d" />
	</g><g
   id="g40">
		<g
   class="st1"
   id="g10">
			<path
   class="st2"
   d="m 52,44 c 0,2.2 -1.8,4 -4,4 H 16 c -2.2,0 -4,-1.8 -4,-4 V 24 c 0,-2.2 1.8,-4 4,-4 h 32 c 2.2,0 4,1.8 4,4 z"
   id="path8" />
		</g>
		<g
   id="g14">
			<path
   class="st3"
   d="m 52,42 c 0,2.2 -1.8,4 -4,4 H 16 c -2.2,0 -4,-1.8 -4,-4 V 22 c 0,-2.2 1.8,-4 4,-4 h 32 c 2.2,0 4,1.8 4,4 z"
   id="path12" />
		</g>
		<g
   class="st1"
   id="g20">
			<g
   id="g18">
				<path
   class="st2"
   d="m 35.5,30.2 c -1.9,-2.1 -5.1,-2.1 -7,0 L 13,43.2 c -0.2,0.2 -0.3,0.4 -0.5,0.6 0.7,1.3 2,2.2 3.4,2.2 h 32 c 1.5,0 2.7,-0.9 3.4,-2.2 -0.1,-0.2 -0.3,-0.4 -0.5,-0.6 z"
   id="path16" />
			</g>
		</g>
		<g
   id="g26">
			<g
   id="g24">
				<path
   class="st3"
   d="m 35.5,32 c -1.9,-1.9 -5.1,-1.9 -7,0 L 13,43.5 c -0.2,0.2 -0.3,0.3 -0.5,0.5 0.7,1.2 2,1.9 3.4,1.9 h 32 c 1.5,0 2.7,-0.8 3.4,-1.9 -0.1,-0.2 -0.3,-0.3 -0.5,-0.5 z"
   id="path22" />
			</g>
		</g>
		<g
   class="st1"
   id="g32">
			<g
   id="g30">
				<path
   class="st2"
   d="M 12.6,20.2 C 13.3,18.9 14.6,18 16,18 h 32 c 1.5,0 2.7,0.9 3.4,2.2 -0.1,0.2 -0.3,0.4 -0.5,0.6 l -15.4,13 c -1.9,2.1 -5.1,2.1 -7,0 z"
   id="path28" />
			</g>
		</g>
		<g
   id="g38">
			<g
   id="g36">
				<path
   class="st4"
   d="m 28.5,32 c 1.9,1.9 5.1,1.9 7,0 L 51,20.5 c 0.2,-0.2 0.3,-0.3 0.5,-0.5 -0.7,-1.2 -2,-1.9 -3.4,-1.9 H 16 c -1.5,0 -2.7,0.8 -3.4,1.9 0.1,0.2 0.3,0.3 0.5,0.5 z"
   id="path34" />
			</g>
		</g>
	</g>
<g
   id="Layer_2">
</g>
</svg>
